<?xml version="1.0" encoding="UTF-8"?>
<svg width="256px" height="256px" viewBox="0 0 256 256" version="1.1" xmlns="http://www.w3.org/2000/svg" xmlns:xlink="http://www.w3.org/1999/xlink">
    <!-- Generator: Sketch 52 (66869) - http://www.bohemiancoding.com/sketch -->
    <title>Group</title>
    <desc>Created with Sketch.</desc>
    <g id="Page-1" stroke="none" stroke-width="1" fill="none" fill-rule="evenodd">
        <g id="Desktop-HD" transform="translate(-403.000000, -95.000000)">
            <g id="Group" transform="translate(403.000000, 95.000000)">
                <rect id="Rectangle" fill="#F27353" x="0" y="0" width="256" height="256" rx="5"></rect>
                <g id="web-recipe-clipper-svg" transform="translate(68.000000, 64.000000)" fill="#FFFFFF">
                    <path d="M2.11111111,126.057778 C12.8488889,135.728889 84.8844444,92.8488889 95.5511111,74.7866667 C100.671111,66.1111111 94.6266667,53.3822222 84.7422222,43.2133333 C95.9777778,35.7466667 105.862222,59 115.248889,54.0933333 C119.515556,51.8177778 122.288889,44.7777778 120.226667,40.44 C116.528889,32.76 104.226667,32.76 95.9066667,31.8355556 C101.808889,30.4133333 115.96,24.3688889 116.244444,15.8355556 C116.528889,9.29333333 108.208889,1.82666667 101.666667,2.60888889 C93.0622222,3.60444444 89.9333333,15.9777778 87.0177778,23.9422222 C86.6622222,18.8933333 85.5955556,7.8 80.0488889,2.96444444 C72.6533333,-3.50666667 63.7644444,2.60888889 63.5511111,10.4311111 C63.2666667,19.8888889 83.6044444,25.1511111 77.2044444,36.5288889 C66.3955556,28.2088889 53.6666667,23.6577778 45.4888889,28.4222222 C42.0044444,30.6266667 38.0222222,34.8933333 33.8977778,40.44 C40.2266667,47.1244444 48.9733333,55.16 55.8711111,59.7822222 C57.2933333,60.7777778 57.72,62.7688889 56.6533333,64.1911111 C55.6577778,65.6844444 53.6666667,66.04 52.2444444,65.0444444 C45.2044444,60.28 36.6,52.3866667 30.2,45.7733333 C27,50.5377778 23.7288889,55.9422222 20.6711111,61.6311111 C26.7155556,67.7466667 34.3955556,74.6444444 40.5111111,78.7688889 C41.9333333,79.7644444 42.2888889,81.7555556 41.2933333,83.1777778 C40.2977778,84.6711111 38.3066667,85.0266667 36.8133333,84.0311111 C30.7688889,79.9066667 23.5866667,73.5066667 17.5422222,67.5333333 C4.95555556,92.3511111 -4.28888889,120.368889 2.11111111,126.057778 Z" id="Path"></path>
                </g>
            </g>
        </g>
    </g>
</svg>